<svg width="93" height="30" viewBox="0 0 93 30" fill="none" xmlns="http://www.w3.org/2000/svg">
<g clip-path="url(#clip0_2001_2069)">
<path d="M18.0641 18.1317C17.8319 16.4409 17.1729 14.6525 16.1668 12.9441L15.4139 13.4233L14.7076 13.8734C15.5852 15.3689 16.1586 16.92 16.3584 18.3735C16.6139 20.2268 16.2262 21.6673 15.2689 22.4311C14.4574 23.0773 13.2778 23.2047 11.8945 22.8072C11.6593 22.7401 11.4181 22.6569 11.1709 22.5585C11.1679 22.5577 11.1656 22.5562 11.1626 22.5554C11.1514 22.5509 11.1401 22.5463 11.1288 22.5417C10.974 22.4791 10.82 22.412 10.6652 22.3387C10.6404 22.3273 10.6164 22.3159 10.5916 22.3036C10.5014 22.2609 10.412 22.2159 10.3226 22.1694C10.2858 22.1503 10.2489 22.1312 10.2121 22.1114C10.122 22.0633 10.0333 22.0137 9.94388 21.9626C9.91007 21.9435 9.87626 21.9237 9.84245 21.9038C9.58773 21.7551 9.33451 21.5925 9.08355 21.4171C9.04523 21.3911 9.00766 21.3644 8.97009 21.3369C8.93628 21.3133 8.90247 21.2889 8.86941 21.2645C8.81832 21.2278 8.76647 21.1897 8.71538 21.1508C8.66278 21.1119 8.61093 21.0722 8.55909 21.031C8.5095 20.9928 8.46141 20.9547 8.41182 20.915C8.33818 20.8578 8.26605 20.7983 8.19392 20.738C8.13832 20.6922 8.08271 20.6449 8.02786 20.5976C7.91591 20.5022 7.80545 20.4038 7.69575 20.3039C7.64541 20.2581 7.59582 20.2123 7.54623 20.165C7.54247 20.162 7.53871 20.1581 7.53496 20.1543C7.48837 20.1108 7.44254 20.0666 7.39595 20.0216C7.22689 19.859 7.06084 19.6904 6.89704 19.5172C6.86172 19.4798 6.82565 19.4417 6.79034 19.4035C6.78508 19.3974 6.77907 19.3906 6.77306 19.3845C6.743 19.3524 6.7137 19.3204 6.68439 19.2876C6.64683 19.2471 6.61001 19.2059 6.57319 19.164C6.55215 19.1403 6.53111 19.1167 6.50932 19.093C6.49655 19.0778 6.48378 19.0625 6.47025 19.0472C6.43193 19.0037 6.39436 18.9595 6.35679 18.9152C6.32073 18.8733 6.28466 18.8305 6.24935 18.7878C6.24033 18.7779 6.23206 18.768 6.2238 18.7581C6.19374 18.7222 6.16369 18.6863 6.13438 18.6497C6.10583 18.6154 6.07728 18.5803 6.04948 18.5452C6.01642 18.5055 5.98411 18.4643 5.95255 18.4239C5.91498 18.3773 5.87816 18.3293 5.84135 18.282C5.79025 18.2156 5.73916 18.1492 5.68957 18.0821C5.66327 18.0477 5.63772 18.0126 5.61293 17.9783C5.57085 17.9226 5.53027 17.8669 5.4912 17.8112C5.48294 17.8013 5.47542 17.7906 5.46866 17.7799C5.41231 17.7021 5.35671 17.6235 5.30261 17.5442C5.2981 17.5381 5.29359 17.5319 5.28983 17.5258C5.23724 17.4495 5.18539 17.3717 5.1343 17.2947C5.10875 17.2573 5.08395 17.2191 5.05991 17.181C5.04113 17.152 5.02309 17.1238 5.00506 17.0955C4.99755 17.0848 4.99078 17.0742 4.98402 17.0635C4.96448 17.0345 4.94645 17.0047 4.92767 16.975C4.91339 16.9528 4.89911 16.9307 4.88634 16.9078C4.85929 16.8659 4.83374 16.8247 4.80895 16.7835C4.56325 16.3806 4.33934 15.9724 4.13947 15.5635C4.10941 15.5017 4.07936 15.4398 4.05081 15.378C4.01925 15.3124 3.98919 15.2461 3.95914 15.1804C3.93359 15.124 3.90804 15.0683 3.884 15.0118C3.81713 14.8592 3.75401 14.7066 3.69465 14.5533C3.67812 14.5144 3.66309 14.4747 3.64882 14.4358C3.62853 14.3839 3.60899 14.3312 3.59021 14.2794C3.57368 14.2351 3.5579 14.1908 3.54212 14.1458C3.52108 14.0878 3.50155 14.0299 3.48201 13.9719C3.46247 13.9139 3.44294 13.8559 3.42491 13.7979C3.41138 13.7559 3.39786 13.714 3.38583 13.672C3.38283 13.6652 3.38057 13.6575 3.37907 13.6507C3.37907 13.6491 3.37757 13.6484 3.37907 13.6468C3.36855 13.614 3.35878 13.5805 3.34902 13.5477C3.33249 13.4927 3.31671 13.4378 3.30168 13.3828C3.28515 13.3256 3.27012 13.2684 3.25509 13.2104C3.23781 13.1456 3.22128 13.0807 3.20625 13.0159C3.1747 12.8861 3.14614 12.7572 3.1206 12.629C3.10707 12.5649 3.09505 12.5008 3.08378 12.4367C3.07401 12.3826 3.06499 12.3284 3.05598 12.2742C3.05447 12.2651 3.05297 12.2552 3.05147 12.2452C3.04095 12.1819 3.03193 12.1186 3.02292 12.0553C3.02066 12.0385 3.01841 12.0217 3.01615 12.0049C3.0139 11.9874 3.01165 11.969 3.01014 11.9507C2.97783 11.7058 2.95905 11.4685 2.95078 11.2389C2.89894 9.77928 3.30093 8.64472 4.11317 7.99771C5.07043 7.23397 6.54088 7.19506 8.25328 7.88632C9.56444 8.41659 10.8801 9.31844 12.0801 10.4988L12.6849 9.97613L13.3965 9.3604C12.0027 7.96491 10.4503 6.89215 8.8897 6.26117C6.58296 5.33033 4.50915 5.45774 3.04922 6.62206C1.58853 7.78561 0.973151 9.80141 1.31653 12.2971C1.56975 14.1351 2.32639 16.0876 3.48502 17.9279C3.63679 18.169 3.79458 18.4079 3.95989 18.6444C4.12369 18.8794 4.29425 19.1113 4.47083 19.341C4.47609 19.3478 4.48135 19.3547 4.48661 19.3616C4.66393 19.5912 4.84577 19.8148 5.03211 20.033C6.64983 21.9351 8.5651 23.3886 10.4924 24.1668C11.5105 24.5781 12.4843 24.7833 13.3792 24.7833C14.5108 24.7833 15.5169 24.456 16.3321 23.8067C17.7928 22.6424 18.4074 20.6274 18.0641 18.1317Z" fill="white"/>
<path d="M13.9982 18.3032C13.8524 17.2403 13.4602 16.1233 12.8659 15.046L12.5375 15.2551L11.4052 15.9761C11.5104 16.1691 11.6073 16.3629 11.6952 16.5567C12.0003 17.2289 12.2046 17.9026 12.2926 18.545C12.4436 19.6437 12.2212 20.5196 11.6824 20.9492C11.1429 21.3788 10.2518 21.3902 9.23744 20.9805C8.31399 20.6074 7.38603 19.9405 6.55501 19.0631C6.31682 18.8121 6.08765 18.5435 5.86825 18.2604C5.48429 17.763 5.15218 17.2449 4.87943 16.7215C4.45415 15.9044 4.17463 15.075 4.06643 14.2914C3.91541 13.1927 4.13857 12.3168 4.67731 11.8872C4.95381 11.6667 5.32274 11.5569 5.75328 11.5569C6.18383 11.5569 6.62714 11.6561 7.1223 11.856C7.78652 12.1245 8.45375 12.5449 9.08491 13.0874L10.0933 12.2153L10.4103 11.9414C10.2473 11.7934 10.0812 11.6523 9.91293 11.518C9.22091 10.9648 8.49131 10.5269 7.75872 10.2308C6.13499 9.57541 4.66303 9.6746 3.6141 10.5116C3.22564 10.8229 3.00098 11.2952 3.00098 11.7888C3.00098 11.843 3.00323 11.8972 3.00924 11.9506C3.01074 11.9689 3.013 11.9872 3.01525 12.0047C3.01751 12.0215 3.01976 12.0383 3.02202 12.0551C3.03103 12.1184 3.04005 12.1818 3.05057 12.2451C3.05207 12.255 3.05357 12.2649 3.05508 12.2741C3.06409 12.3283 3.07311 12.3824 3.08288 12.4366C3.09415 12.5007 3.10617 12.5648 3.11969 12.6289C3.14524 12.7571 3.17379 12.886 3.20535 13.0157C3.22038 13.0806 3.23691 13.1454 3.25419 13.2103C3.26922 13.2682 3.28425 13.3255 3.30078 13.3827C3.31581 13.4376 3.33158 13.4926 3.34811 13.5475C3.35788 13.5803 3.36765 13.6139 3.37817 13.6467C3.37817 13.6482 3.37817 13.649 3.37817 13.6505C3.37967 13.6574 3.38193 13.665 3.38493 13.6719C3.39695 13.7138 3.41048 13.7558 3.424 13.7978C3.44204 13.8557 3.46157 13.9137 3.48111 13.9717C3.50064 14.0297 3.52018 14.0877 3.54122 14.1457C3.557 14.1907 3.57278 14.2349 3.58931 14.2792C3.60809 14.3311 3.62763 14.3837 3.64792 14.4356C3.66219 14.4753 3.67797 14.5142 3.69375 14.5531C3.75311 14.7065 3.81622 14.8591 3.8831 15.0117C3.90789 15.0681 3.93269 15.1238 3.95824 15.1803C3.98829 15.2459 4.01835 15.3123 4.0499 15.3779C4.07846 15.4397 4.10851 15.5015 4.13857 15.5633C4.33843 15.9723 4.56235 16.3805 4.80805 16.7833C4.83359 16.8245 4.85914 16.8665 4.88544 16.9077C4.89821 16.9306 4.91249 16.9527 4.92677 16.9748C4.94555 17.0046 4.96358 17.0343 4.98312 17.0633C4.98988 17.074 4.99664 17.0847 5.00416 17.0954C5.02219 17.1236 5.04022 17.1518 5.05901 17.1808C5.08305 17.219 5.10785 17.2571 5.13339 17.2945C5.18449 17.3716 5.23633 17.4494 5.28893 17.5257C5.29269 17.5318 5.2972 17.5379 5.3017 17.544C5.3558 17.6234 5.41141 17.7019 5.46776 17.7798C5.47452 17.7904 5.48204 17.8011 5.4903 17.811C5.52937 17.8667 5.56995 17.9224 5.61202 17.9781C5.63682 18.0125 5.66237 18.0476 5.68867 18.0819C5.73826 18.149 5.78935 18.2154 5.84044 18.2818C5.87726 18.3291 5.91408 18.3772 5.95165 18.4237C5.98321 18.4642 6.01552 18.5054 6.04858 18.545C6.07638 18.5801 6.10493 18.6152 6.13348 18.6496C6.16279 18.6862 6.19284 18.722 6.2229 18.7579C6.23116 18.7678 6.23943 18.7777 6.24844 18.7877C6.28376 18.8304 6.31982 18.8731 6.35589 18.9151C6.39346 18.9593 6.43103 19.0036 6.46935 19.0471C6.48287 19.0623 6.49565 19.0776 6.50917 19.0921C6.53021 19.1165 6.55125 19.1402 6.57229 19.1638C6.60911 19.2058 6.64592 19.247 6.68349 19.2874C6.7128 19.3202 6.7421 19.3523 6.77216 19.3843C6.77817 19.3904 6.78418 19.3973 6.78944 19.4034C6.82475 19.4415 6.86082 19.4797 6.89613 19.5171C7.05993 19.6903 7.22599 19.8589 7.39505 20.0214C7.44164 20.0664 7.48747 20.1107 7.53406 20.1542C7.53781 20.158 7.54157 20.1618 7.54533 20.1649C7.59492 20.2114 7.64526 20.2579 7.69485 20.3037C7.80455 20.4037 7.91501 20.5021 8.02696 20.5975C8.08181 20.6448 8.13741 20.6921 8.19302 20.7379C8.26515 20.7981 8.33728 20.8576 8.41092 20.9149C8.46051 20.9545 8.5086 20.9927 8.55819 21.0308C8.61003 21.072 8.66188 21.1117 8.71447 21.1506C8.76557 21.1895 8.81741 21.2269 8.86851 21.2643C8.90157 21.2887 8.93538 21.3131 8.96919 21.3368C9.00676 21.3643 9.04433 21.391 9.08265 21.4169C9.33361 21.5924 9.58683 21.7549 9.84155 21.9037C9.87536 21.9235 9.90917 21.9434 9.94298 21.9624C10.0324 22.0136 10.1211 22.0632 10.2112 22.1112C10.248 22.1311 10.2849 22.1501 10.3217 22.1692C10.4111 22.2157 10.5005 22.2608 10.5907 22.3035C10.6155 22.3157 10.6395 22.3271 10.6643 22.3386C10.8191 22.4118 10.9731 22.479 11.1279 22.5415C11.1392 22.5461 11.1505 22.5507 11.1617 22.5553C11.1647 22.5553 11.167 22.5576 11.17 22.5583C11.6945 22.7643 12.2933 22.6835 12.7374 22.331C12.7396 22.3287 12.7426 22.3271 12.7449 22.3249C13.7946 21.4886 14.2394 20.0603 13.9974 18.3032H13.9982Z" fill="white"/>
<path d="M15.6994 12.1924L14.2395 13.1217L12.4091 14.2868L10.9499 15.2161L5.96901 18.3871L5.93895 18.4061L4.47151 19.3408L1.66435 21.1277C1.46673 21.2536 1.26461 20.9736 1.44269 20.8202L3.96057 18.6442L5.27699 17.5058L5.31531 17.473L9.71013 13.6741L11.0243 12.538L12.6721 11.1136L13.9847 9.979C14.2988 10.3254 14.6024 10.6886 14.8947 11.0663C15.1794 11.4348 15.4484 11.8109 15.6994 12.1924Z" fill="white"/>
<path d="M21.5493 6.27023L18.6392 6.58229C18.2162 6.62731 17.7894 6.55559 17.4039 6.37323L14.9439 5.21045L15.1903 7.57646C15.2715 8.35775 14.9679 9.12989 14.3788 9.6388L13.9844 9.97985C14.2985 10.3262 14.602 10.6894 14.8943 11.0671C15.1791 11.4356 15.4481 11.8118 15.699 12.1933L15.9673 12.0224C16.6405 11.5943 17.4813 11.5409 18.2011 11.8812L20.3313 12.8883L20.0638 10.3148C20.0195 9.88524 20.0901 9.45187 20.2697 9.06046L21.5493 6.27023ZM19.247 9.22603L19.244 9.22832L19.2035 9.16499L19.247 9.22603Z" fill="white"/>
</g>
<path d="M86.6572 10.4821H88.3119V12.2261C88.6398 11.5554 89.0721 11.0634 89.6087 10.7504C90.1603 10.4225 90.8832 10.2361 91.7776 10.1914V11.8237C89.4671 12.0473 88.3119 13.2994 88.3119 15.5801V22.7129H86.6572V10.4821Z" fill="white"/>
<path d="M84.9487 18.6881C84.7251 19.3291 84.4121 19.9179 84.0096 20.4545C83.6221 20.9763 83.1674 21.4309 82.6457 21.8185C82.124 22.1912 81.5501 22.4818 80.924 22.6905C80.3128 22.8992 79.6718 23.0036 79.001 23.0036C78.0917 23.0036 77.2421 22.8396 76.452 22.5116C75.6769 22.1688 74.9986 21.7067 74.4173 21.1253C73.8359 20.544 73.3738 19.8657 73.031 19.0906C72.703 18.3006 72.5391 17.4509 72.5391 16.5416C72.5391 15.6472 72.703 14.8199 73.031 14.0596C73.3589 13.2845 73.8061 12.6137 74.3726 12.0473C74.9539 11.4659 75.6247 11.0113 76.3849 10.6833C77.1601 10.3554 77.9874 10.1914 78.8669 10.1914C79.7464 10.1914 80.5737 10.3628 81.3488 10.7057C82.1389 11.0336 82.8246 11.4808 83.4059 12.0473C84.0022 12.6137 84.4717 13.2771 84.8146 14.0373C85.1574 14.7975 85.3289 15.6025 85.3289 16.4521C85.3289 16.5714 85.3214 16.6906 85.3065 16.8099C85.2916 16.9142 85.2692 17.026 85.2394 17.1453H74.1937C74.2235 17.7416 74.3726 18.308 74.6409 18.8446C74.9092 19.3664 75.252 19.8285 75.6694 20.2309C76.1017 20.6185 76.6011 20.9241 77.1675 21.1477C77.734 21.3713 78.3302 21.4831 78.9563 21.4831C79.4184 21.4831 79.8656 21.416 80.2979 21.2819C80.7451 21.1477 81.155 20.9614 81.5277 20.7229C81.9004 20.4695 82.2283 20.1713 82.5115 19.8285C82.8097 19.4856 83.0482 19.1055 83.227 18.6881H84.9487ZM83.6072 15.6472C83.3239 14.4249 82.7575 13.4634 81.9078 12.7628C81.073 12.0622 80.0594 11.7119 78.8669 11.7119C78.2855 11.7119 77.734 11.8088 77.2123 12.0025C76.7054 12.1814 76.2508 12.4497 75.8483 12.8075C75.4458 13.1504 75.103 13.5677 74.8198 14.0596C74.5514 14.5367 74.3577 15.0658 74.2384 15.6472H83.6072Z" fill="white"/>
<path d="M67.825 11.9801H65.1865V10.482H67.825V6.18896H69.4796V10.482H72.2299V11.9801H69.4796V22.7128H67.825V11.9801Z" fill="white"/>
<path d="M60.1343 23.0371C58.7182 23.0371 57.5517 22.7315 56.635 22.1204C55.7257 21.5092 55.1667 20.6595 54.958 19.5714L56.635 19.2919C56.8139 19.9776 57.2201 20.5254 57.8536 20.9353C58.4946 21.3378 59.2846 21.539 60.2237 21.539C61.1405 21.539 61.8635 21.349 62.3926 20.9688C62.9218 20.5813 63.1864 20.0558 63.1864 19.3925C63.1864 19.0198 63.1007 18.718 62.9293 18.4869C62.7653 18.2484 62.4262 18.0285 61.9119 17.8273C61.3976 17.6261 60.6299 17.3875 59.6088 17.1118C58.5132 16.8136 57.6561 16.5155 57.0375 16.2174C56.4188 15.9193 55.9791 15.5764 55.7182 15.1888C55.4574 14.7938 55.3269 14.3131 55.3269 13.7466C55.3269 13.0609 55.5207 12.4609 55.9083 11.9467C56.2959 11.4249 56.8325 11.0225 57.5182 10.7392C58.2039 10.4486 59.0014 10.3032 59.9107 10.3032C60.82 10.3032 61.6324 10.4523 62.3479 10.7504C63.0709 11.0411 63.6522 11.451 64.092 11.9802C64.5317 12.5094 64.7926 13.1243 64.8746 13.8249L63.1976 14.1267C63.0858 13.4187 62.7318 12.8597 62.1355 12.4498C61.5467 12.0324 60.7976 11.8162 59.8883 11.8013C59.0312 11.779 58.3343 11.9429 57.7977 12.2932C57.2611 12.6361 56.9927 13.0945 56.9927 13.6684C56.9927 13.9889 57.0896 14.2646 57.2834 14.4957C57.4772 14.7193 57.8275 14.9317 58.3343 15.1329C58.8486 15.3342 59.579 15.554 60.5256 15.7925C61.6361 16.0758 62.5082 16.3739 63.1417 16.6869C63.7752 17 64.2261 17.3689 64.4945 17.7937C64.7628 18.2186 64.8969 18.744 64.8969 19.3701C64.8969 20.5105 64.4721 21.4086 63.6224 22.0645C62.7802 22.7129 61.6175 23.0371 60.1343 23.0371Z" fill="white"/>
<path d="M51.8865 20.8122C51.4691 21.5724 50.9474 22.1314 50.3213 22.4891C49.6952 22.832 48.9052 23.0034 47.9511 23.0034C46.2369 23.0034 44.94 22.504 44.0605 21.5053C43.196 20.5066 42.7637 19.0308 42.7637 17.0781V10.4819H44.4183V17.0781C44.4183 20.0147 45.6332 21.4829 48.0629 21.4829C49.3151 21.4829 50.2617 21.0805 50.9026 20.2755C51.5585 19.4706 51.8865 18.3004 51.8865 16.765V10.4819H53.5411V22.7127H51.8865V20.8122Z" fill="white"/>
<path d="M39.1816 6.18896H40.8363V22.7128H39.1816V6.18896Z" fill="white"/>
<path d="M37.7855 19.113C37.07 20.4396 36.2278 21.4235 35.2589 22.0645C34.2899 22.6905 33.1347 23.0036 31.7931 23.0036C30.854 23.0036 29.9745 22.8396 29.1546 22.5116C28.3497 22.1837 27.6491 21.7291 27.0528 21.1477C26.4566 20.5663 25.987 19.8881 25.6442 19.113C25.3013 18.3229 25.1299 17.4732 25.1299 16.5639C25.1299 15.6696 25.2939 14.8348 25.6218 14.0596C25.9646 13.2845 26.4342 12.6137 27.0305 12.0473C27.6267 11.4659 28.3199 11.0113 29.1099 10.6833C29.9149 10.3554 30.772 10.1914 31.6813 10.1914C32.3819 10.1914 33.0452 10.2883 33.6713 10.4821C34.2974 10.661 34.8713 10.9218 35.393 11.2647C35.9148 11.6075 36.3769 12.0324 36.7793 12.5392C37.1967 13.0311 37.5247 13.5826 37.7632 14.1938H35.9073C35.4303 13.3889 34.8266 12.7777 34.0962 12.3603C33.3806 11.928 32.5682 11.7119 31.6589 11.7119C30.9732 11.7119 30.3323 11.8386 29.736 12.092C29.1546 12.3454 28.6478 12.6957 28.2155 13.1429C27.7832 13.5752 27.4404 14.0895 27.187 14.6857C26.9336 15.282 26.8069 15.923 26.8069 16.6087C26.8069 17.2944 26.9336 17.9353 27.187 18.5316C27.4404 19.113 27.7907 19.6272 28.2379 20.0744C28.6851 20.5067 29.2068 20.8496 29.8031 21.103C30.3993 21.3564 31.0403 21.4831 31.726 21.4831C32.6055 21.4831 33.3583 21.3042 33.9844 20.9465C34.6253 20.5738 35.2663 19.9626 35.9073 19.113H37.7855Z" fill="white"/>
<defs>
<clipPath id="clip0_2001_2069">
<rect width="20.3256" height="19.5728" fill="white" transform="translate(1.22363 5.21045)"/>
</clipPath>
</defs>
</svg>
